HIERARCHY
ROOT Hips
{
	OFFSET -3.958830 18.904000 13.208200
	CHANNELS 6 Xposition Yposition Zposition Zrotation Yrotation Xrotation 
	JOINT LHipJoint
	{
		OFFSET 0.000000 0.000000 0.000000
		CHANNELS 3 Zrotation Yrotation Xrotation
		JOINT LeftUpLeg
		{
			OFFSET 1.800000 -1.400000 0.085000
			CHANNELS 3 Zrotation Yrotation Xrotation
			JOINT LeftLeg
			{
				OFFSET 2.215000 -6.000000 0.000000
				CHANNELS 3 Zrotation Yrotation Xrotation
				JOINT LeftFoot
				{
					OFFSET 2.500000 -6.900000 0.000000
					CHANNELS 3 Zrotation Yrotation Xrotation
					JOINT LeftToeBase
					{
						OFFSET 0.200000 -0.500000 1.950000
						CHANNELS 3 Zrotation Yrotation Xrotation
						End Site
						{
							OFFSET 0.000000 0.000000 0.000000
						}
					}
				}
			}
		}
	}
	JOINT RHipJoint
	{
		OFFSET 0.000000 0.000000 0.000000
		CHANNELS 3 Zrotation Yrotation Xrotation
		JOINT RightUpLeg
		{
			OFFSET -1.800000 -1.400000 0.085000
			CHANNELS 3 Zrotation Yrotation Xrotation
			JOINT RightLeg
			{
				OFFSET -2.215000 -6.000000 0.000000
				CHANNELS 3 Zrotation Yrotation Xrotation
				JOINT RightFoot
				{
					OFFSET -2.500000 -6.900000 0.000000
					CHANNELS 3 Zrotation Yrotation Xrotation
					JOINT RightToeBase
					{
						OFFSET -0.200000 -0.500000 1.950000
						CHANNELS 3 Zrotation Yrotation Xrotation
						End Site
						{
							OFFSET 0.000000 0.000000 0.000000
						}
					}
				}
			}
		}
	}
	JOINT LowerBack
	{
		OFFSET 0.000000 0.000000 0.000000
		CHANNELS 3 Zrotation Yrotation Xrotation
		JOINT Spine
		{
			OFFSET -0.087000 1.940000 -0.288900
			CHANNELS 3 Zrotation Yrotation Xrotation
			JOINT Spine1
			{
				OFFSET 0.000000 1.950000 0.060000
				CHANNELS 3 Zrotation Yrotation Xrotation
				JOINT Neck
				{
					OFFSET 0.000000 0.000000 0.000000
					CHANNELS 3 Zrotation Yrotation Xrotation
					JOINT Neck1
					{
						OFFSET 0.000000 1.600000 0.340000
						CHANNELS 3 Zrotation Yrotation Xrotation
						JOINT Head
						{
							OFFSET 0.000000 1.667000 -0.240000
							CHANNELS 3 Zrotation Yrotation Xrotation
							End Site
							{
								OFFSET 0.000000 0.000000 0.000000
							}
						}
					}
				}
				JOINT LeftShoulder
				{
					OFFSET 0.000000 0.000000 0.000000
					CHANNELS 3 Zrotation Yrotation Xrotation
					JOINT LeftArm
					{
						OFFSET 2.700000 1.550000 -0.730000
						CHANNELS 3 Zrotation Yrotation Xrotation
						JOINT LeftForeArm
						{
							OFFSET 5.450000 0.000000 0.000000
							CHANNELS 3 Zrotation Yrotation Xrotation
							JOINT LeftHand
							{
								OFFSET 3.450000 0.000000 0.000000
								CHANNELS 3 Zrotation Yrotation Xrotation
								JOINT LeftHandIndex1
								{
									OFFSET 0.750000 0.000000 0.000000
									CHANNELS 3 Zrotation Yrotation Xrotation
									End Site
									{
										OFFSET 0.000000 0.000000 0.000000
									}
								}
							}
						}
					}
				}
				JOINT RightShoulder
				{
					OFFSET 0.000000 0.000000 0.000000
					CHANNELS 3 Zrotation Yrotation Xrotation
					JOINT RightArm
					{
						OFFSET -2.700000 1.550000 -0.730000
						CHANNELS 3 Zrotation Yrotation Xrotation
						JOINT RightForeArm
						{
							OFFSET -5.450000 0.000000 0.000000
							CHANNELS 3 Zrotation Yrotation Xrotation
							JOINT RightHand
							{
								OFFSET -3.450000 0.000000 0.000000
								CHANNELS 3 Zrotation Yrotation Xrotation
								JOINT RightHandIndex1
								{
									OFFSET -0.750000 0.000000 0.000000
									CHANNELS 3 Zrotation Yrotation Xrotation
									End Site
									{
										OFFSET 0.000000 0.000000 0.000000
									}
								}
							}
						}
					}
				}
			}
		}
	}
}
MOTION
Frames: 12
Frame Time: 0.016667
0.145980 16.964400 -2.763120 0.905043 24.649747 -10.153146 -14.627522 13.634878 2.824924 8.813924 -0.325792 -16.005406 -3.639712 5.993440 19.635620 0.083803 3.365860 3.196230 0.851700 0.557570 0.817320 18.320023 -12.371952 2.956027 -9.114846 3.361622 -7.641376 7.274562 -6.694881 24.999641 -0.839466 -4.176108 2.737915 -0.017520 -0.707740 0.202030 -5.625928 1.265235 -7.716018 34.935322 -5.528981 25.030870 -25.506967 3.311151 5.664069 12.614956 -4.017993 -18.326167 -2.875453 -3.382737 79.648427 -4.314190 -11.319180 -28.871510 -47.842733 -14.459891 3.836172 -40.379347 17.863812 -8.862439 -2.249962 -5.984990 -1.155384 -2.376341 3.078622 0.754450 -0.784110 0.683540 0.080340 20.559455 26.530316 14.815142 54.825129 29.152887 -15.310309 -112.760551 36.361187 -70.965291 2.663090 -1.003639 0.404630 -0.074530 -0.429180 -0.058250 
0.159500 16.928770 -2.773090 0.658327 24.921759 -9.521925 -14.633003 13.604132 2.833531 8.514558 -0.419556 -15.848138 -3.125300 5.407008 17.480007 0.065131 3.070822 3.334363 0.804130 0.508510 0.775300 18.311100 -12.345736 3.004522 -9.313783 3.834469 -8.778982 8.141201 -6.969634 25.752350 -0.810135 -4.263667 2.721510 -0.042170 -0.667070 0.187950 -5.620884 1.269601 -7.758901 34.986933 -5.525583 24.645434 -25.322502 3.253091 5.483788 12.634967 -4.082915 -18.306000 -2.826941 -3.646196 77.814301 -4.749150 -11.196260 -27.516030 -47.022962 -14.162268 3.844702 -41.553983 17.549657 -9.016841 -2.036084 -5.836286 -1.130284 -2.430482 3.056879 0.724920 -0.755310 0.644750 0.086530 19.645659 26.595403 14.922420 55.067799 29.656226 -14.883361 -113.121147 35.230492 -70.419475 2.660071 -1.037990 0.385030 -0.067720 -0.413960 -0.049480 
0.160450 16.876560 -2.802240 0.224786 24.921693 -8.909526 -14.643636 13.557127 2.836522 8.523700 -0.416325 -15.613468 -2.522176 4.761930 14.636457 0.041642 2.785460 3.463274 0.750990 0.444630 0.727820 18.307141 -12.256091 3.082325 -9.495909 4.748736 -10.499234 9.341325 -7.391168 27.271959 -0.786627 -4.449200 2.659071 -0.072920 -0.615560 0.196220 -5.576892 1.196845 -7.839072 34.736858 -5.828346 25.043193 -24.704689 3.068851 5.593941 12.437437 -4.190005 -18.221804 -3.590754 -3.261733 74.606237 -4.033570 -10.802340 -26.355160 -46.064463 -14.612134 4.170054 -43.327668 16.706620 -9.188768 -2.195393 -5.554578 -1.123379 -2.511448 3.058431 0.695840 -0.712540 0.598200 0.084540 19.135426 27.268098 14.856920 54.038742 30.861137 -14.532760 -113.781900 34.017831 -69.839584 2.651149 -1.083029 0.367280 -0.083330 -0.387660 -0.044860 
0.151530 16.841830 -2.842880 -0.489613 24.791434 -8.688439 -14.691004 13.589429 2.854935 9.288103 -0.235279 -15.948697 -2.433958 4.561875 13.132656 0.026017 2.738556 3.494432 0.711350 0.386220 0.705930 18.265426 -12.088539 3.159576 -9.250259 5.592645 -11.704770 10.213428 -7.656941 28.378814 -0.781924 -4.568873 2.620254 -0.100380 -0.578540 0.210200 -5.400904 0.871661 -7.939726 33.962699 -6.376280 26.686450 -23.480564 2.954127 5.662147 12.320541 -3.865221 -18.363875 -3.687227 -3.287008 71.659937 -3.462700 -10.404900 -26.768250 -45.503847 -15.886400 4.696902 -45.076016 15.846023 -9.320825 -2.388003 -5.142694 -1.136453 -2.581486 3.046203 0.696050 -0.683510 0.570640 0.077330 18.920325 28.502678 14.784270 52.172432 32.014167 -14.958747 -114.499846 33.080274 -69.639788 2.640632 -1.099841 0.344921 -0.087630 -0.362680 -0.053730 
0.128370 16.813730 -2.887800 -0.992191 24.249502 -8.425802 -14.806785 13.772305 2.898621 9.937182 0.027917 -17.241771 -2.200783 4.639192 13.535277 0.025470 2.779974 3.467265 0.682890 0.344170 0.719070 18.135519 -11.842055 3.260024 -9.096005 6.392606 -12.718448 11.305437 -7.880717 28.934031 -0.783203 -4.619218 2.602510 -0.125620 -0.590060 0.215160 -4.977313 0.202087 -8.077777 31.470394 -6.129063 29.999846 -20.912578 3.615246 3.961131 12.045513 -2.422822 -18.286382 -0.807602 -5.086702 69.025194 -4.093040 -9.603920 -27.976230 -45.234347 -16.526245 4.988647 -46.533913 15.355692 -9.592660 -3.289727 -4.792663 -1.176094 -2.621122 3.024773 0.708880 -0.676600 0.568980 0.056700 19.159702 28.691021 14.266295 50.429502 31.257268 -15.615720 -115.292094 32.129389 -69.369517 2.637301 -1.126047 0.329010 -0.105050 -0.356300 -0.081190 
0.096190 16.785430 -2.945650 -1.677494 23.412606 -7.969449 -14.935118 13.930376 2.909684 10.447554 0.343062 -19.955302 -1.441147 4.867235 15.812792 0.061236 2.872608 3.403487 0.662000 0.325730 0.735690 18.013324 -11.567245 3.389307 -8.794505 7.386942 -14.156044 12.546658 -8.121266 29.494409 -0.786079 -4.682068 2.584057 -0.152070 -0.601500 0.234680 -4.521955 -0.439348 -8.202416 28.820181 -5.603211 33.393696 -18.230081 4.623182 2.246621 11.741156 -0.569939 -18.071326 2.800432 -7.119610 64.813368 -5.185530 -8.453320 -28.526080 -44.352799 -17.045621 5.442180 -48.776956 14.795732 -10.464725 -4.019145 -5.399536 -1.220382 -2.670303 3.056920 0.684580 -0.652870 0.570320 0.044070 18.830623 28.657386 13.569427 48.477421 30.886118 -15.970414 -115.721348 31.278049 -68.827938 2.643578 -1.180124 0.342090 -0.145870 -0.367720 -0.093840 
0.066520 16.745000 -3.013270 -2.593334 22.407587 -7.099078 -15.052645 13.957221 2.945759 10.779492 0.641917 -23.918544 -0.156058 5.105749 18.957971 0.103503 3.048657 3.298426 0.625660 0.293410 0.722050 17.943571 -11.257021 3.529549 -8.327892 8.572503 -16.206997 13.728036 -8.335135 30.090178 -0.768058 -4.752344 2.568287 -0.184280 -0.590330 0.257620 -4.137856 -0.929791 -8.328708 26.728396 -4.946989 36.298504 -15.533818 5.813132 0.442079 11.129473 0.622232 -17.427866 4.819273 -8.064348 59.204376 -5.471220 -7.159890 -28.086140 -42.093389 -16.769658 5.660523 -52.041764 13.909898 -11.736765 -5.956065 -6.224508 -1.341721 -2.753610 3.099339 0.639970 -0.607400 0.544280 0.031310 17.764480 28.293054 12.743009 46.701716 30.795970 -15.791043 -116.142738 30.312833 -68.112370 2.636457 -1.260819 0.354930 -0.203970 -0.366620 -0.100910 
0.037420 16.715770 -3.076450 -3.789477 21.232249 -6.268365 -15.206285 13.963602 3.087530 11.409058 1.061095 -28.183375 0.905495 5.466406 21.852586 0.159010 3.376403 3.159512 0.582210 0.254520 0.718900 17.866521 -10.837049 3.609152 -7.485856 9.515895 -17.597874 14.805833 -8.271995 29.597196 -0.739316 -4.646927 2.623743 -0.212800 -0.573520 0.249200 -3.675693 -1.628229 -8.479449 24.665939 -4.057381 39.194213 -12.691713 7.515580 -1.496745 10.560186 1.593088 -17.314337 6.244622 -8.953302 55.200866 -5.966580 -6.363460 -27.718890 -40.109983 -16.704695 5.876781 -54.898910 13.585154 -13.054106 -8.664143 -7.107001 -1.514139 -2.816104 3.077314 0.614800 -0.578720 0.528780 0.024360 16.893156 28.577722 12.328011 44.266184 29.587381 -16.625340 -116.452273 29.018117 -66.707571 2.643439 -1.314637 0.341190 -0.209130 -0.369440 -0.107970 
0.010800 16.685830 -3.135690 -5.159557 20.195542 -5.735382 -15.371169 13.919740 3.280935 12.101654 1.621137 -32.454351 2.128423 5.883463 24.935245 0.230441 3.849635 2.970795 0.536520 0.194760 0.704260 17.806482 -10.370437 3.639046 -6.487983 10.403112 -18.393693 15.878436 -8.157388 28.872449 -0.719407 -4.541934 2.671138 -0.254280 -0.567630 0.257270 -3.229567 -2.340388 -8.635754 23.054312 -3.239605 42.495029 -10.087620 9.513178 -3.707936 9.900622 1.965763 -17.126944 6.650694 -9.532257 51.255758 -5.531690 -5.884950 -28.399910 -37.216700 -15.656588 5.772695 -58.094606 13.476446 -14.837318 -12.298969 -8.121542 -1.769831 -2.875085 3.078817 0.614290 -0.566910 0.516700 0.017500 15.222401 28.579559 11.944034 42.166431 28.452523 -17.418508 -116.769819 27.251820 -64.622230 2.651181 -1.394754 0.327820 -0.242530 -0.368320 -0.120140 
-0.023890 16.665810 -3.186520 -6.276516 18.551967 -5.710090 -15.551693 13.972661 3.439527 12.725437 2.487478 -35.810879 3.572349 6.291737 27.777106 0.314237 4.369022 2.760287 0.508210 0.146030 0.698380 17.732120 -9.894291 3.605965 -5.416221 11.105455 -18.332829 16.505038 -7.883307 28.183931 -0.708055 -4.417766 2.717769 -0.296020 -0.579810 0.272570 -2.738306 -3.233174 -8.776383 20.712314 -2.008634 46.437550 -7.254983 11.906773 -5.423251 9.141908 1.641661 -17.405917 5.734404 -9.432431 49.138313 -3.955220 -5.666480 -29.011540 -34.002293 -14.944425 5.898396 -61.252042 13.742805 -17.178895 -17.131259 -10.019268 -2.052028 -2.910473 3.110660 0.628740 -0.574710 0.519000 0.007360 13.650470 29.530314 11.809761 39.044670 27.466312 -18.708426 -116.762183 25.362982 -61.789322 2.669873 -1.481037 0.329170 -0.289760 -0.370090 -0.132100 
-0.046780 16.668490 -3.234670 -7.035809 16.986194 -6.415525 -15.740071 14.202644 3.500529 12.588537 3.363565 -38.120303 5.656715 6.410697 30.436758 0.382059 4.817218 2.588720 0.448150 0.072520 0.673420 17.623758 -9.458565 3.510175 -4.835724 11.401585 -17.086245 17.299953 -7.588426 26.955010 -0.695686 -4.284600 2.777957 -0.354160 -0.584440 0.260890 -2.220103 -4.352234 -8.862355 17.936899 -0.717929 51.221121 -5.052133 14.382264 -7.012300 8.771788 1.090890 -18.302431 4.621636 -9.054352 48.819834 -2.183320 -5.473900 -30.427450 -30.767873 -14.675117 6.205222 -63.776036 14.426495 -19.624054 -22.976273 -11.713863 -2.313698 -2.935423 3.101634 0.667580 -0.596210 0.521800 -0.018770 11.436405 31.255371 11.921545 35.858383 26.455529 -20.561282 -116.263658 22.736120 -57.599764 2.694409 -1.533330 0.308350 -0.298970 -0.346060 -0.146610 
-0.053100 16.657260 -3.273700 -7.575465 15.572898 -6.986483 -15.915399 14.437057 3.511466 12.027132 4.068827 -39.967347 7.771498 6.303306 32.291136 0.457700 5.124776 2.480653 0.404260 0.018390 0.662810 17.518480 -9.066110 3.416809 -4.716663 11.601577 -15.967840 18.286680 -7.362527 25.764593 -0.682875 -4.204682 2.822291 -0.397380 -0.580440 0.246900 -1.744766 -5.390464 -8.938887 15.229997 0.977349 55.052784 -2.594947 16.866072 -7.902957 8.449156 0.258031 -19.341735 3.293885 -8.586266 48.242432 -0.936260 -5.374760 -29.829060 -26.901390 -13.871958 6.408107 -66.443709 15.200947 -22.035983 -29.794146 -12.952580 -2.530786 -2.972855 3.101125 0.676420 -0.602990 0.521000 -0.030690 8.547588 32.777956 12.055055 32.559462 25.372428 -22.520658 -114.974252 20.083205 -52.737882 2.747612 -1.608486 0.296540 -0.302620 -0.341520 -0.149810 
